<mxfile host="app.diagrams.net" modified="2023-11-07T15:54:07.338Z" agent="Mozilla/5.0 (Windows NT 10.0; Win64; x64) AppleWebKit/537.36 (KHTML, like Gecko) Chrome/119.0.0.0 Safari/537.36 Edg/119.0.0.0" etag="Ij0bcNedn6K_IJswa7uP" version="22.0.8" type="github">
  <diagram id="C5RBs43oDa-KdzZeNtuy" name="Page-1">
    <mxGraphModel dx="872" dy="465" grid="1" gridSize="10" guides="1" tooltips="1" connect="1" arrows="1" fold="1" page="1" pageScale="1" pageWidth="827" pageHeight="1169" math="0" shadow="0">
      <root>
        <mxCell id="WIyWlLk6GJQsqaUBKTNV-0" />
        <mxCell id="WIyWlLk6GJQsqaUBKTNV-1" parent="WIyWlLk6GJQsqaUBKTNV-0" />
        <mxCell id="0-2pyDhqjZhR1P5Sggoj-0" value="START" style="rounded=1;whiteSpace=wrap;html=1;fontSize=12;glass=0;strokeWidth=1;shadow=0;fillColor=#d5e8d4;strokeColor=#82b366;" parent="WIyWlLk6GJQsqaUBKTNV-1" vertex="1">
          <mxGeometry x="310" y="40" width="120" height="40" as="geometry" />
        </mxCell>
        <mxCell id="0-2pyDhqjZhR1P5Sggoj-1" value="TRUE" style="rounded=0;html=1;jettySize=auto;orthogonalLoop=1;fontSize=11;endArrow=block;endFill=0;endSize=8;strokeWidth=1;shadow=0;labelBackgroundColor=none;edgeStyle=orthogonalEdgeStyle;" parent="WIyWlLk6GJQsqaUBKTNV-1" source="0-2pyDhqjZhR1P5Sggoj-5" edge="1">
          <mxGeometry y="20" relative="1" as="geometry">
            <mxPoint as="offset" />
            <mxPoint x="370" y="410" as="sourcePoint" />
            <mxPoint x="380" y="540" as="targetPoint" />
            <Array as="points">
              <mxPoint x="370" y="411" />
              <mxPoint x="460" y="411" />
            </Array>
          </mxGeometry>
        </mxCell>
        <mxCell id="0-2pyDhqjZhR1P5Sggoj-2" value="" style="rounded=0;html=1;jettySize=auto;orthogonalLoop=1;fontSize=11;endArrow=block;endFill=0;endSize=8;strokeWidth=1;shadow=0;labelBackgroundColor=none;edgeStyle=orthogonalEdgeStyle;" parent="WIyWlLk6GJQsqaUBKTNV-1" source="0-2pyDhqjZhR1P5Sggoj-0" target="0-2pyDhqjZhR1P5Sggoj-3" edge="1">
          <mxGeometry relative="1" as="geometry">
            <mxPoint x="370" y="80" as="sourcePoint" />
            <mxPoint x="370" y="230" as="targetPoint" />
          </mxGeometry>
        </mxCell>
        <mxCell id="0-2pyDhqjZhR1P5Sggoj-3" value="int _printf(const char *format,...);" style="ellipse;whiteSpace=wrap;html=1;fontSize=16;fillColor=#f5f5f5;strokeColor=#666666;gradientColor=#b3b3b3;" parent="WIyWlLk6GJQsqaUBKTNV-1" vertex="1">
          <mxGeometry x="245" y="120" width="285" height="80" as="geometry" />
        </mxCell>
        <mxCell id="0-2pyDhqjZhR1P5Sggoj-4" value="&lt;div&gt;int parse_format(const char *format, format_t get_opt[], va_list valist)&lt;/div&gt;&lt;div&gt;variables&lt;/div&gt;&lt;div&gt;int i,j;&lt;/div&gt;&lt;div&gt;int count;&lt;/div&gt;" style="rounded=1;whiteSpace=wrap;html=1;absoluteArcSize=1;arcSize=14;strokeWidth=2;fontSize=16;fillColor=#f5f5f5;strokeColor=#666666;fontColor=#333333;" parent="WIyWlLk6GJQsqaUBKTNV-1" vertex="1">
          <mxGeometry x="262.5" y="230" width="250" height="130" as="geometry" />
        </mxCell>
        <mxCell id="0-2pyDhqjZhR1P5Sggoj-5" value="for (i = 0; format[i] != &#39;\0&#39;; i++)" style="rounded=1;whiteSpace=wrap;html=1;fontSize=16;fillColor=#647687;fontColor=#ffffff;strokeColor=#314354;" parent="WIyWlLk6GJQsqaUBKTNV-1" vertex="1">
          <mxGeometry x="260" y="410" width="240" height="60" as="geometry" />
        </mxCell>
        <mxCell id="0-2pyDhqjZhR1P5Sggoj-6" value="" style="endArrow=none;html=1;rounded=0;fontSize=12;startSize=8;endSize=8;curved=1;" parent="WIyWlLk6GJQsqaUBKTNV-1" edge="1">
          <mxGeometry width="50" height="50" relative="1" as="geometry">
            <mxPoint x="390" y="400" as="sourcePoint" />
            <mxPoint x="390" y="350" as="targetPoint" />
          </mxGeometry>
        </mxCell>
        <mxCell id="0-2pyDhqjZhR1P5Sggoj-7" value="Parameters&amp;nbsp;&lt;br&gt;and declarations" style="text;html=1;align=center;verticalAlign=middle;resizable=0;points=[];autosize=1;strokeColor=none;fillColor=none;fontSize=16;" parent="WIyWlLk6GJQsqaUBKTNV-1" vertex="1">
          <mxGeometry x="120" y="260" width="140" height="50" as="geometry" />
        </mxCell>
        <mxCell id="0-2pyDhqjZhR1P5Sggoj-8" value="" style="endArrow=classic;html=1;rounded=0;fontSize=12;startSize=8;endSize=8;curved=1;exitX=0;exitY=0.5;exitDx=0;exitDy=0;" parent="WIyWlLk6GJQsqaUBKTNV-1" source="0-2pyDhqjZhR1P5Sggoj-12" target="0-2pyDhqjZhR1P5Sggoj-9" edge="1">
          <mxGeometry width="50" height="50" relative="1" as="geometry">
            <mxPoint x="260" y="440" as="sourcePoint" />
            <mxPoint x="160" y="440" as="targetPoint" />
          </mxGeometry>
        </mxCell>
        <mxCell id="0-2pyDhqjZhR1P5Sggoj-9" value="" style="swimlane;startSize=0;fontSize=16;fillColor=#f8cecc;strokeColor=#b85450;" parent="WIyWlLk6GJQsqaUBKTNV-1" vertex="1">
          <mxGeometry x="40" y="410" width="120" height="50" as="geometry" />
        </mxCell>
        <mxCell id="0-2pyDhqjZhR1P5Sggoj-10" value="STOP" style="text;html=1;align=center;verticalAlign=middle;resizable=0;points=[];autosize=1;strokeColor=#b85450;fillColor=#f8cecc;fontSize=16;" parent="0-2pyDhqjZhR1P5Sggoj-9" vertex="1">
          <mxGeometry x="25" y="20" width="70" height="30" as="geometry" />
        </mxCell>
        <mxCell id="0-2pyDhqjZhR1P5Sggoj-11" value="" style="endArrow=classic;html=1;rounded=0;fontSize=12;startSize=8;endSize=8;curved=1;exitX=0;exitY=0.5;exitDx=0;exitDy=0;" parent="WIyWlLk6GJQsqaUBKTNV-1" source="0-2pyDhqjZhR1P5Sggoj-5" target="0-2pyDhqjZhR1P5Sggoj-12" edge="1">
          <mxGeometry width="50" height="50" relative="1" as="geometry">
            <mxPoint x="260" y="440" as="sourcePoint" />
            <mxPoint x="160" y="440" as="targetPoint" />
          </mxGeometry>
        </mxCell>
        <mxCell id="0-2pyDhqjZhR1P5Sggoj-12" value="FALSE" style="text;html=1;align=center;verticalAlign=middle;resizable=0;points=[];autosize=1;strokeColor=none;fillColor=none;fontSize=16;" parent="WIyWlLk6GJQsqaUBKTNV-1" vertex="1">
          <mxGeometry x="170" y="425" width="70" height="30" as="geometry" />
        </mxCell>
        <mxCell id="0-2pyDhqjZhR1P5Sggoj-13" value="&lt;div&gt;if (format[i] == &#39;%&#39;)&lt;/div&gt;" style="shape=parallelogram;perimeter=parallelogramPerimeter;whiteSpace=wrap;html=1;fixedSize=1;fontSize=16;fillColor=#647687;fontColor=#ffffff;strokeColor=#314354;" parent="WIyWlLk6GJQsqaUBKTNV-1" vertex="1">
          <mxGeometry x="310" y="540" width="130" height="70" as="geometry" />
        </mxCell>
        <mxCell id="0-2pyDhqjZhR1P5Sggoj-14" value="Reads the next character to check for different&lt;br&gt;format options specified in the get_opt" style="ellipse;shape=cloud;whiteSpace=wrap;html=1;fontSize=16;fillColor=#fff2cc;gradientColor=#ffd966;strokeColor=#d6b656;" parent="WIyWlLk6GJQsqaUBKTNV-1" vertex="1">
          <mxGeometry x="130" y="690" width="440" height="130" as="geometry" />
        </mxCell>
        <mxCell id="0-2pyDhqjZhR1P5Sggoj-15" value="" style="rounded=0;html=1;jettySize=auto;orthogonalLoop=1;fontSize=11;endArrow=block;endFill=0;endSize=8;strokeWidth=1;shadow=0;labelBackgroundColor=none;edgeStyle=orthogonalEdgeStyle;" parent="WIyWlLk6GJQsqaUBKTNV-1" source="0-2pyDhqjZhR1P5Sggoj-13" target="0-2pyDhqjZhR1P5Sggoj-16" edge="1">
          <mxGeometry x="0.3333" y="20" relative="1" as="geometry">
            <mxPoint as="offset" />
            <mxPoint x="381" y="610" as="sourcePoint" />
            <mxPoint x="400" y="1050" as="targetPoint" />
            <Array as="points" />
          </mxGeometry>
        </mxCell>
        <mxCell id="0-2pyDhqjZhR1P5Sggoj-16" value="TRUE" style="text;strokeColor=none;fillColor=none;html=1;align=center;verticalAlign=middle;whiteSpace=wrap;rounded=0;fontSize=16;" parent="WIyWlLk6GJQsqaUBKTNV-1" vertex="1">
          <mxGeometry x="345" y="640" width="60" height="30" as="geometry" />
        </mxCell>
        <mxCell id="0-2pyDhqjZhR1P5Sggoj-17" value="(J++)" style="text;strokeColor=none;fillColor=none;html=1;align=center;verticalAlign=middle;whiteSpace=wrap;rounded=0;fontSize=16;" parent="WIyWlLk6GJQsqaUBKTNV-1" vertex="1">
          <mxGeometry x="360" y="830" width="60" height="30" as="geometry" />
        </mxCell>
        <mxCell id="0-2pyDhqjZhR1P5Sggoj-18" value="If match is found, pass valist to process arguments" style="ellipse;whiteSpace=wrap;html=1;aspect=fixed;fontSize=16;fillColor=#fff2cc;gradientColor=#ffd966;strokeColor=#d6b656;" parent="WIyWlLk6GJQsqaUBKTNV-1" vertex="1">
          <mxGeometry x="315" y="880" width="120" height="120" as="geometry" />
        </mxCell>
        <mxCell id="0-2pyDhqjZhR1P5Sggoj-19" value="" style="endArrow=classic;html=1;rounded=0;fontSize=12;startSize=8;endSize=8;curved=1;entryX=0.554;entryY=0.187;entryDx=0;entryDy=0;entryPerimeter=0;exitX=0.5;exitY=1;exitDx=0;exitDy=0;" parent="WIyWlLk6GJQsqaUBKTNV-1" source="0-2pyDhqjZhR1P5Sggoj-16" target="0-2pyDhqjZhR1P5Sggoj-14" edge="1">
          <mxGeometry width="50" height="50" relative="1" as="geometry">
            <mxPoint x="240" y="790" as="sourcePoint" />
            <mxPoint x="290" y="740" as="targetPoint" />
          </mxGeometry>
        </mxCell>
        <mxCell id="0-2pyDhqjZhR1P5Sggoj-20" value="%c will use&lt;br&gt;set_char function" style="rounded=1;whiteSpace=wrap;html=1;fontSize=16;fillColor=#647687;fontColor=#ffffff;strokeColor=#314354;" parent="WIyWlLk6GJQsqaUBKTNV-1" vertex="1">
          <mxGeometry x="80" y="1090" width="120" height="60" as="geometry" />
        </mxCell>
        <mxCell id="0-2pyDhqjZhR1P5Sggoj-21" value="%s will use&lt;br&gt;set_string&amp;nbsp;&lt;br&gt;function&lt;br&gt;" style="rounded=1;whiteSpace=wrap;html=1;fontSize=16;fillColor=#647687;fontColor=#ffffff;strokeColor=#314354;" parent="WIyWlLk6GJQsqaUBKTNV-1" vertex="1">
          <mxGeometry x="220" y="1090" width="120" height="60" as="geometry" />
        </mxCell>
        <mxCell id="0-2pyDhqjZhR1P5Sggoj-22" value="%i &amp;amp; %d will use&lt;br&gt;set_decimal&lt;br&gt;function" style="rounded=1;whiteSpace=wrap;html=1;fontSize=16;fillColor=#647687;fontColor=#ffffff;strokeColor=#314354;" parent="WIyWlLk6GJQsqaUBKTNV-1" vertex="1">
          <mxGeometry x="360" y="1090" width="120" height="60" as="geometry" />
        </mxCell>
        <mxCell id="0-2pyDhqjZhR1P5Sggoj-23" value="%% will use&lt;br&gt;print_percent&lt;br&gt;function." style="rounded=1;whiteSpace=wrap;html=1;fontSize=16;fillColor=#647687;fontColor=#ffffff;strokeColor=#314354;" parent="WIyWlLk6GJQsqaUBKTNV-1" vertex="1">
          <mxGeometry x="512.5" y="1090" width="120" height="60" as="geometry" />
        </mxCell>
        <mxCell id="0-2pyDhqjZhR1P5Sggoj-24" value="NULL" style="rounded=0;whiteSpace=wrap;html=1;fontSize=16;fillColor=#647687;fontColor=#ffffff;strokeColor=#314354;" parent="WIyWlLk6GJQsqaUBKTNV-1" vertex="1">
          <mxGeometry x="670" y="1090" width="120" height="60" as="geometry" />
        </mxCell>
        <mxCell id="0-2pyDhqjZhR1P5Sggoj-25" value="" style="endArrow=none;html=1;rounded=0;fontSize=12;startSize=8;endSize=8;curved=1;entryX=0.5;entryY=1;entryDx=0;entryDy=0;exitX=0.5;exitY=0;exitDx=0;exitDy=0;" parent="WIyWlLk6GJQsqaUBKTNV-1" source="0-2pyDhqjZhR1P5Sggoj-4" target="0-2pyDhqjZhR1P5Sggoj-3" edge="1">
          <mxGeometry width="50" height="50" relative="1" as="geometry">
            <mxPoint x="390" y="230" as="sourcePoint" />
            <mxPoint x="430" y="180" as="targetPoint" />
          </mxGeometry>
        </mxCell>
        <mxCell id="0-2pyDhqjZhR1P5Sggoj-26" value="" style="endArrow=classic;html=1;rounded=0;entryX=0.5;entryY=0;entryDx=0;entryDy=0;exitX=0.5;exitY=1;exitDx=0;exitDy=0;" parent="WIyWlLk6GJQsqaUBKTNV-1" source="0-2pyDhqjZhR1P5Sggoj-18" target="0-2pyDhqjZhR1P5Sggoj-21" edge="1">
          <mxGeometry width="50" height="50" relative="1" as="geometry">
            <mxPoint x="170" y="1080" as="sourcePoint" />
            <mxPoint x="220" y="1030" as="targetPoint" />
          </mxGeometry>
        </mxCell>
        <mxCell id="0-2pyDhqjZhR1P5Sggoj-27" value="" style="endArrow=classic;html=1;rounded=0;entryX=0.5;entryY=0;entryDx=0;entryDy=0;" parent="WIyWlLk6GJQsqaUBKTNV-1" target="0-2pyDhqjZhR1P5Sggoj-22" edge="1">
          <mxGeometry width="50" height="50" relative="1" as="geometry">
            <mxPoint x="370" y="1000" as="sourcePoint" />
            <mxPoint x="500" y="980" as="targetPoint" />
          </mxGeometry>
        </mxCell>
        <mxCell id="0-2pyDhqjZhR1P5Sggoj-28" value="" style="endArrow=classic;html=1;rounded=0;entryX=0.5;entryY=0;entryDx=0;entryDy=0;" parent="WIyWlLk6GJQsqaUBKTNV-1" target="0-2pyDhqjZhR1P5Sggoj-23" edge="1">
          <mxGeometry width="50" height="50" relative="1" as="geometry">
            <mxPoint x="370" y="1000" as="sourcePoint" />
            <mxPoint x="500" y="980" as="targetPoint" />
          </mxGeometry>
        </mxCell>
        <mxCell id="0-2pyDhqjZhR1P5Sggoj-29" value="" style="endArrow=classic;html=1;rounded=0;entryX=0.5;entryY=0;entryDx=0;entryDy=0;" parent="WIyWlLk6GJQsqaUBKTNV-1" target="0-2pyDhqjZhR1P5Sggoj-24" edge="1">
          <mxGeometry width="50" height="50" relative="1" as="geometry">
            <mxPoint x="370" y="1000" as="sourcePoint" />
            <mxPoint x="500" y="980" as="targetPoint" />
          </mxGeometry>
        </mxCell>
        <mxCell id="0-2pyDhqjZhR1P5Sggoj-30" value="" style="endArrow=classic;html=1;rounded=0;entryX=0.5;entryY=0;entryDx=0;entryDy=0;exitX=0.5;exitY=1;exitDx=0;exitDy=0;" parent="WIyWlLk6GJQsqaUBKTNV-1" source="0-2pyDhqjZhR1P5Sggoj-18" target="0-2pyDhqjZhR1P5Sggoj-20" edge="1">
          <mxGeometry width="50" height="50" relative="1" as="geometry">
            <mxPoint x="100" y="1040" as="sourcePoint" />
            <mxPoint x="150" y="990" as="targetPoint" />
          </mxGeometry>
        </mxCell>
        <mxCell id="0-2pyDhqjZhR1P5Sggoj-31" value="get_opt [ ]" style="shape=process;whiteSpace=wrap;html=1;backgroundOutline=1;fillColor=#eeeeee;strokeColor=#36393d;" parent="WIyWlLk6GJQsqaUBKTNV-1" vertex="1">
          <mxGeometry x="330" y="1010" width="110" height="30" as="geometry" />
        </mxCell>
        <mxCell id="0-2pyDhqjZhR1P5Sggoj-32" value="" style="endArrow=classic;html=1;rounded=0;exitX=0.5;exitY=1;exitDx=0;exitDy=0;entryX=0.5;entryY=0;entryDx=0;entryDy=0;" parent="WIyWlLk6GJQsqaUBKTNV-1" source="0-2pyDhqjZhR1P5Sggoj-24" edge="1">
          <mxGeometry width="50" height="50" relative="1" as="geometry">
            <mxPoint x="780" y="1280" as="sourcePoint" />
            <mxPoint x="730" y="1200" as="targetPoint" />
          </mxGeometry>
        </mxCell>
        <mxCell id="0-2pyDhqjZhR1P5Sggoj-33" value="" style="endArrow=classic;html=1;rounded=0;entryX=0.708;entryY=0.063;entryDx=0;entryDy=0;exitX=0.5;exitY=1;exitDx=0;exitDy=0;entryPerimeter=0;" parent="WIyWlLk6GJQsqaUBKTNV-1" source="0-2pyDhqjZhR1P5Sggoj-22" target="0-2pyDhqjZhR1P5Sggoj-34" edge="1">
          <mxGeometry width="50" height="50" relative="1" as="geometry">
            <mxPoint x="360" y="1210" as="sourcePoint" />
            <mxPoint x="494" y="1370" as="targetPoint" />
          </mxGeometry>
        </mxCell>
        <mxCell id="0-2pyDhqjZhR1P5Sggoj-34" value="The output and print number of characters&amp;nbsp;" style="ellipse;whiteSpace=wrap;html=1;fillColor=#d5e8d4;strokeColor=#82b366;" parent="WIyWlLk6GJQsqaUBKTNV-1" vertex="1">
          <mxGeometry x="325" y="1280" width="120" height="80" as="geometry" />
        </mxCell>
        <mxCell id="0-2pyDhqjZhR1P5Sggoj-35" value="" style="endArrow=classic;html=1;rounded=0;entryX=0.008;entryY=0.363;entryDx=0;entryDy=0;entryPerimeter=0;exitX=1;exitY=1;exitDx=0;exitDy=0;" parent="WIyWlLk6GJQsqaUBKTNV-1" source="0-2pyDhqjZhR1P5Sggoj-20" target="0-2pyDhqjZhR1P5Sggoj-34" edge="1">
          <mxGeometry width="50" height="50" relative="1" as="geometry">
            <mxPoint x="210" y="1170" as="sourcePoint" />
            <mxPoint x="200" y="1320" as="targetPoint" />
          </mxGeometry>
        </mxCell>
        <mxCell id="0-2pyDhqjZhR1P5Sggoj-36" value="" style="endArrow=classic;html=1;rounded=0;entryX=0.333;entryY=0.025;entryDx=0;entryDy=0;entryPerimeter=0;exitX=0.658;exitY=1.017;exitDx=0;exitDy=0;exitPerimeter=0;" parent="WIyWlLk6GJQsqaUBKTNV-1" source="0-2pyDhqjZhR1P5Sggoj-21" target="0-2pyDhqjZhR1P5Sggoj-34" edge="1">
          <mxGeometry width="50" height="50" relative="1" as="geometry">
            <mxPoint y="1400" as="sourcePoint" />
            <mxPoint x="50" y="1350" as="targetPoint" />
          </mxGeometry>
        </mxCell>
        <mxCell id="0-2pyDhqjZhR1P5Sggoj-37" value="" style="endArrow=classic;html=1;rounded=0;entryX=0.967;entryY=0.238;entryDx=0;entryDy=0;entryPerimeter=0;exitX=0.5;exitY=1;exitDx=0;exitDy=0;" parent="WIyWlLk6GJQsqaUBKTNV-1" source="0-2pyDhqjZhR1P5Sggoj-23" target="0-2pyDhqjZhR1P5Sggoj-34" edge="1">
          <mxGeometry width="50" height="50" relative="1" as="geometry">
            <mxPoint x="10" y="1480" as="sourcePoint" />
            <mxPoint x="60" y="1430" as="targetPoint" />
          </mxGeometry>
        </mxCell>
        <mxCell id="0-2pyDhqjZhR1P5Sggoj-38" value="STOP" style="rounded=0;whiteSpace=wrap;html=1;fillColor=#f8cecc;strokeColor=#b85450;" parent="WIyWlLk6GJQsqaUBKTNV-1" vertex="1">
          <mxGeometry x="564" y="545" width="120" height="60" as="geometry" />
        </mxCell>
        <mxCell id="0-2pyDhqjZhR1P5Sggoj-39" value="" style="endArrow=classic;html=1;rounded=0;entryX=0;entryY=0.5;entryDx=0;entryDy=0;exitX=1;exitY=0.5;exitDx=0;exitDy=0;" parent="WIyWlLk6GJQsqaUBKTNV-1" source="0-2pyDhqjZhR1P5Sggoj-13" target="0-2pyDhqjZhR1P5Sggoj-38" edge="1">
          <mxGeometry width="50" height="50" relative="1" as="geometry">
            <mxPoint x="210" y="670" as="sourcePoint" />
            <mxPoint x="260" y="620" as="targetPoint" />
          </mxGeometry>
        </mxCell>
        <mxCell id="0-2pyDhqjZhR1P5Sggoj-40" value="" style="endArrow=classic;html=1;rounded=0;entryX=0.432;entryY=0.024;entryDx=0;entryDy=0;entryPerimeter=0;exitX=0.532;exitY=0.914;exitDx=0;exitDy=0;exitPerimeter=0;" parent="WIyWlLk6GJQsqaUBKTNV-1" source="0-2pyDhqjZhR1P5Sggoj-14" target="0-2pyDhqjZhR1P5Sggoj-18" edge="1">
          <mxGeometry width="50" height="50" relative="1" as="geometry">
            <mxPoint x="240" y="910" as="sourcePoint" />
            <mxPoint x="290" y="860" as="targetPoint" />
          </mxGeometry>
        </mxCell>
        <mxCell id="0-2pyDhqjZhR1P5Sggoj-41" value="&lt;font style=&quot;font-size: 19px;&quot;&gt;using&amp;nbsp; _putchar&amp;nbsp; function&lt;br&gt;&lt;/font&gt;" style="text;html=1;strokeColor=none;fillColor=none;align=center;verticalAlign=middle;whiteSpace=wrap;rounded=0;" parent="WIyWlLk6GJQsqaUBKTNV-1" vertex="1">
          <mxGeometry x="170" y="1210" width="430" height="50" as="geometry" />
        </mxCell>
        <mxCell id="0-2pyDhqjZhR1P5Sggoj-42" value="-1" style="whiteSpace=wrap;html=1;aspect=fixed;fillColor=#f8cecc;strokeColor=#b85450;" parent="WIyWlLk6GJQsqaUBKTNV-1" vertex="1">
          <mxGeometry x="715" y="1200" width="45" height="45" as="geometry" />
        </mxCell>
      </root>
    </mxGraphModel>
  </diagram>
</mxfile>
